<svg width="124" height="33" viewBox="0 0 124 33" fill="none" xmlns="http://www.w3.org/2000/svg">
<g clip-path="url(#clip0_20005128_12670)">
<g clip-path="url(#clip1_20005128_12670)">
<path d="M19.7115 15.3113C19.7115 11.7569 22.7191 10.0253 22.8103 9.93414C21.0786 7.47339 18.4356 7.19997 17.5242 7.10883C15.3369 6.83542 13.1495 8.38478 11.9647 8.38478C10.7799 8.38478 9.0483 7.10883 7.13438 7.10883C4.67363 7.10883 2.39516 8.47591 1.21035 10.6632C-1.34154 15.0379 0.572378 21.4176 3.03313 24.8809C4.30907 26.6126 5.67616 28.5265 7.59007 28.4353C9.41285 28.3442 10.142 27.2505 12.3293 27.2505C14.5166 27.2505 15.1546 28.4353 17.0685 28.3442C19.0736 28.3442 20.2584 26.6126 21.4432 24.8809C22.9014 22.8759 23.4482 20.9619 23.4482 20.8708C23.5394 20.9619 19.7115 19.5949 19.7115 15.3113Z" fill="white"/>
<path d="M16.066 4.83035C17.0686 3.64555 17.7065 2.00505 17.5242 0.273407C16.066 0.364546 14.3344 1.27593 13.2407 2.46074C12.3293 3.46327 11.5091 5.19491 11.6914 6.83541C13.3319 6.92655 15.0635 6.01516 16.066 4.83035Z" fill="white"/>
<path d="M46.3242 28.253H43.7723L42.4052 23.9695H37.3925L36.0255 28.253H33.4736L38.3039 13.5797H41.3115L46.3242 28.253ZM41.8583 22.1467L40.5824 18.3189C40.4913 17.9543 40.2178 17.043 39.8533 15.5847C39.671 16.2227 39.4887 17.1341 39.1242 18.3189L37.8482 22.1467H41.8583Z" fill="white"/>
<path d="M58.8101 22.8759C58.8101 24.6986 58.3544 26.0657 57.3519 27.1594C56.4405 28.0708 55.3469 28.5265 53.9798 28.5265C52.5216 28.5265 51.519 27.9796 50.8811 26.9771V32.5366H48.4203V21.1442C48.4203 20.0506 48.4203 18.8658 48.3292 17.6809H50.4254L50.5165 19.3214C51.3367 18.0455 52.5216 17.4075 54.1621 17.4075C55.438 17.4075 56.5317 17.8632 57.3519 18.8658C58.3544 19.9594 58.8101 21.2354 58.8101 22.8759ZM56.3494 22.967C56.3494 21.9645 56.076 21.0531 55.6203 20.4151C55.0734 19.686 54.4355 19.4126 53.5241 19.4126C52.8861 19.4126 52.4304 19.5949 51.8836 19.9594C51.4279 20.324 51.0633 20.8708 50.9722 21.5088C50.8811 21.7822 50.8811 22.0556 50.8811 22.2379V23.9695C50.8811 24.6986 51.1545 25.4278 51.6102 25.8834C52.0659 26.4303 52.7038 26.7037 53.5241 26.7037C54.4355 26.7037 55.1646 26.3391 55.6203 25.7012C56.076 24.9721 56.3494 24.0607 56.3494 22.967Z" fill="white"/>
<path d="M71.2962 22.8759C71.2962 24.6986 70.8405 26.0657 69.8379 27.1594C68.9265 28.0708 67.8329 28.5265 66.4658 28.5265C65.0076 28.5265 64.005 27.9796 63.3671 26.9771V32.5366H60.9063V21.1442C60.9063 20.0506 60.9063 18.8658 60.8152 17.6809H62.9114L63.0025 19.3214C63.8228 18.0455 65.0076 17.4075 66.6481 17.4075C67.924 17.4075 69.0177 17.8632 69.8379 18.8658C70.8405 19.9594 71.2962 21.2354 71.2962 22.8759ZM68.8354 22.967C68.8354 21.9645 68.562 21.0531 68.1063 20.4151C67.5595 19.686 66.9215 19.4126 66.0101 19.4126C65.3721 19.4126 64.9164 19.5949 64.3696 19.9594C63.9139 20.324 63.5494 20.8708 63.4582 21.5088C63.3671 21.7822 63.3671 22.0556 63.3671 22.2379V23.9695C63.3671 24.6986 63.6405 25.4278 64.0962 25.8834C64.5519 26.4303 65.1899 26.7037 66.0101 26.7037C66.9215 26.7037 67.6506 26.3391 68.1063 25.7012C68.562 24.9721 68.8354 24.0607 68.8354 22.967Z" fill="white"/>
<path d="M85.3316 24.1518C85.3316 25.4278 84.8759 26.4303 83.9645 27.2505C82.962 28.0708 81.5949 28.5265 79.8632 28.5265C78.2227 28.5265 76.9468 28.2531 75.9443 27.6151L76.4911 25.61C77.5848 26.248 78.6784 26.5214 79.9544 26.5214C80.8658 26.5214 81.5949 26.3391 82.0506 25.8835C82.5974 25.5189 82.7797 24.9721 82.7797 24.243C82.7797 23.605 82.5974 23.1493 82.1417 22.6936C81.686 22.329 81.0481 21.8733 80.0455 21.5999C77.4025 20.5974 76.1265 19.2303 76.1265 17.4075C76.1265 16.2227 76.5822 15.2202 77.4936 14.4C78.405 13.6708 79.681 13.2151 81.2303 13.2151C82.5974 13.2151 83.7822 13.4886 84.6936 13.9443L84.0556 15.8582C83.2354 15.4025 82.2329 15.2202 81.1392 15.2202C80.3189 15.2202 79.5898 15.4025 79.1341 15.8582C78.7696 16.2227 78.4962 16.6784 78.4962 17.2253C78.4962 17.7721 78.7696 18.3189 79.2253 18.6835C79.5898 19.048 80.3189 19.4126 81.4126 19.7771C82.6886 20.324 83.6911 20.8708 84.2379 21.5999C84.967 22.2379 85.3316 23.1493 85.3316 24.1518Z" fill="white"/>
<path d="M93.2607 19.4126H90.6177V24.6075C90.6177 25.8834 91.0734 26.6125 91.9847 26.6125C92.4404 26.6125 92.805 26.6125 93.0784 26.5214L93.1695 28.3442C92.7138 28.5265 92.0759 28.6176 91.2556 28.6176C90.3442 28.6176 89.524 28.3442 88.9772 27.7973C88.4303 27.2505 88.1569 26.248 88.1569 24.972V19.5949H86.6075V17.8632H88.1569V15.9493L90.5265 15.2202V17.8632H93.1695V19.4126H93.2607Z" fill="white"/>
<path d="M105.291 22.8759C105.291 24.5164 104.835 25.8834 103.833 26.886C102.83 27.9796 101.463 28.5265 99.8227 28.5265C98.1822 28.5265 96.9974 27.9796 95.9948 26.9771C95.0835 25.9746 94.5366 24.6075 94.5366 23.0581C94.5366 21.4176 94.9923 20.0505 95.9948 19.048C96.9974 18.0455 98.2733 17.4987 99.9138 17.4987C101.554 17.4987 102.83 18.0455 103.742 19.048C104.835 19.9594 105.291 21.3265 105.291 22.8759ZM102.83 22.967C102.83 21.9645 102.648 21.1442 102.192 20.4151C101.645 19.5949 100.916 19.1392 100.005 19.1392C99.0024 19.1392 98.2733 19.5949 97.8176 20.4151C97.3619 21.1442 97.1797 21.9645 97.1797 22.967C97.1797 23.9695 97.3619 24.7898 97.8176 25.5189C98.3645 26.3391 99.0936 26.7948 100.005 26.7948C100.916 26.7948 101.645 26.3391 102.192 25.5189C102.557 24.7898 102.83 23.9695 102.83 22.967Z" fill="white"/>
<path d="M113.129 19.7771C112.856 19.7771 112.673 19.686 112.4 19.686C111.58 19.686 110.85 19.9594 110.395 20.5974C110.03 21.1442 109.757 21.8733 109.757 22.6936V28.2531H107.296V20.9619C107.296 19.7771 107.296 18.5923 107.205 17.5898H109.301L109.392 19.5949H109.483C109.757 18.8658 110.121 18.3189 110.668 17.9544C111.215 17.5898 111.762 17.4075 112.4 17.4075C112.582 17.4075 112.856 17.4075 113.038 17.4075V19.7771H113.129Z" fill="white"/>
<path d="M123.974 22.5113C123.974 22.967 123.974 23.3315 123.883 23.605H116.592C116.592 24.6075 116.957 25.4277 117.686 25.9746C118.324 26.4303 119.053 26.7037 120.055 26.7037C121.149 26.7037 122.152 26.5214 122.972 26.1568L123.336 27.7973C122.334 28.253 121.058 28.4353 119.691 28.4353C117.959 28.4353 116.683 27.9796 115.681 26.9771C114.678 25.9746 114.223 24.6986 114.223 23.0581C114.223 21.4176 114.678 20.1417 115.59 19.048C116.501 17.9543 117.777 17.3164 119.418 17.3164C120.967 17.3164 122.152 17.8632 122.972 19.048C123.61 20.0505 123.974 21.1442 123.974 22.5113ZM121.696 21.8733C121.696 21.1442 121.514 20.5974 121.24 20.0505C120.785 19.4126 120.147 19.048 119.326 19.048C118.506 19.048 117.868 19.4126 117.412 20.0505C117.048 20.5974 116.774 21.1442 116.683 21.8733H121.696Z" fill="white"/>
<path d="M41.0381 4.55695C41.0381 5.83289 40.6735 6.83542 39.8533 7.47339C39.1242 8.11137 38.0305 8.38478 36.6634 8.38478C36.0254 8.38478 35.3875 8.38478 34.9318 8.29364V1.18481C35.5697 1.09367 36.2077 1.00253 36.9368 1.00253C38.2128 1.00253 39.2153 1.27595 39.8533 1.82278C40.6735 2.46076 41.0381 3.37214 41.0381 4.55695ZM39.8533 4.55695C39.8533 3.7367 39.5798 3.09873 39.1242 2.64303C38.6685 2.18734 38.0305 2.00506 37.1191 2.00506C36.7545 2.00506 36.39 2.00506 36.1166 2.0962V7.47339C36.2988 7.47339 36.5723 7.47339 36.9368 7.47339C37.8482 7.47339 38.5773 7.19998 39.033 6.74428C39.5798 6.19745 39.8533 5.46834 39.8533 4.55695Z" fill="white"/>
<path d="M47.6912 5.65061C47.6912 6.47086 47.4178 7.10883 46.9621 7.65567C46.5064 8.2025 45.7773 8.47592 45.0482 8.47592C44.2279 8.47592 43.6811 8.2025 43.1343 7.74681C42.6786 7.19997 42.4052 6.562 42.4052 5.83289C42.4052 5.01264 42.6786 4.37467 43.1343 3.82784C43.59 3.281 44.2279 3.09872 45.0482 3.09872C45.8684 3.09872 46.5064 3.37214 46.9621 3.82784C47.5089 4.19239 47.6912 4.83036 47.6912 5.65061ZM46.5064 5.65061C46.5064 5.19492 46.4153 4.73922 46.233 4.37467C45.9596 3.91897 45.595 3.7367 45.1393 3.7367C44.6836 3.7367 44.3191 3.91897 44.0457 4.37467C43.8634 4.73922 43.7722 5.10378 43.7722 5.65061C43.7722 6.10631 43.8634 6.562 44.0457 6.92656C44.3191 7.38225 44.6836 7.56453 45.1393 7.56453C45.595 7.56453 45.9596 7.38225 46.233 6.92656C46.4153 6.562 46.5064 6.19745 46.5064 5.65061Z" fill="white"/>
<path d="M56.6228 3.09872L54.9823 8.29364H53.8887L53.1596 6.01517C52.9773 5.46834 52.8861 4.9215 52.7039 4.37467C52.6127 4.9215 52.4305 5.46834 52.2482 6.01517L51.5191 8.29364H50.4254L48.876 3.09872H50.0608L50.6988 5.55947C50.8811 6.10631 50.9722 6.74428 51.0634 7.19997C51.1545 6.74428 51.3368 6.19745 51.5191 5.55947L52.2482 3.09872H53.2507L53.9798 5.55947C54.1621 6.19745 54.2532 6.74428 54.4355 7.29111C54.5267 6.74428 54.6178 6.19745 54.8001 5.55947L55.438 3.09872H56.6228Z" fill="white"/>
<path d="M62.8203 8.29362H61.6355V5.28604C61.6355 4.37465 61.2709 3.91896 60.5418 3.91896C60.1772 3.91896 59.9038 4.0101 59.7215 4.28351C59.5393 4.55693 59.357 4.83035 59.357 5.1949V8.29362H58.1722V4.55693C58.1722 4.10124 58.1722 3.64554 58.1722 3.09871H59.1747L59.2658 3.91896C59.4481 3.64554 59.6304 3.46326 59.9038 3.28098C60.2684 3.09871 60.5418 3.00757 60.9975 3.00757C61.4532 3.00757 61.9089 3.18985 62.2734 3.46326C62.7291 3.82782 62.9114 4.46579 62.9114 5.1949V8.29362H62.8203Z" fill="white"/>
<path d="M66.1013 8.29365H64.9164V0.729126H66.1013V8.29365Z" fill="white"/>
<path d="M73.0278 5.65061C73.0278 6.47086 72.7544 7.10883 72.2987 7.65567C71.843 8.2025 71.1139 8.47592 70.3848 8.47592C69.5645 8.47592 69.0177 8.2025 68.4709 7.74681C68.0152 7.19997 67.7418 6.562 67.7418 5.83289C67.7418 5.01264 68.0152 4.37467 68.4709 3.82784C68.9266 3.281 69.5645 3.09872 70.3848 3.09872C71.205 3.09872 71.843 3.37214 72.2987 3.82784C72.8455 4.19239 73.0278 4.83036 73.0278 5.65061ZM71.843 5.65061C71.843 5.19492 71.7519 4.73922 71.5696 4.37467C71.2962 3.91897 70.9316 3.7367 70.4759 3.7367C70.0202 3.7367 69.6557 3.91897 69.3823 4.37467C69.2 4.73922 69.1088 5.10378 69.1088 5.65061C69.1088 6.10631 69.2 6.562 69.3823 6.92656C69.6557 7.38225 70.0202 7.56453 70.4759 7.56453C70.9316 7.56453 71.2962 7.38225 71.5696 6.92656C71.7519 6.562 71.843 6.19745 71.843 5.65061Z" fill="white"/>
<path d="M78.7696 8.29362H77.6759L77.5848 7.65565C77.2202 8.11135 76.6734 8.38476 76.0354 8.38476C75.4886 8.38476 75.124 8.20248 74.8506 7.92907C74.5772 7.65565 74.3949 7.2911 74.3949 6.8354C74.3949 6.19743 74.6683 5.74174 75.2151 5.37718C75.762 5.01262 76.4911 4.92149 77.4936 4.92149V4.83035C77.4936 4.10124 77.1291 3.82782 76.4 3.82782C75.8531 3.82782 75.3974 3.91896 75.0329 4.19237L74.7595 3.46326C75.2151 3.18985 75.8531 3.00757 76.5822 3.00757C77.9493 3.00757 78.6784 3.73668 78.6784 5.1949V7.10882C78.7696 7.56451 78.7696 8.02021 78.7696 8.29362ZM77.5848 6.47085V5.74174C76.3088 5.74174 75.5797 6.10629 75.5797 6.8354C75.5797 7.10882 75.6708 7.2911 75.8531 7.47337C76.0354 7.65565 76.2177 7.65565 76.4 7.65565C76.6734 7.65565 76.9468 7.56451 77.1291 7.38224C77.3113 7.19996 77.4936 7.01768 77.5848 6.74426C77.5848 6.65312 77.5848 6.56199 77.5848 6.47085Z" fill="white"/>
<path d="M85.605 8.29365H84.5113L84.4202 7.4734C84.0556 8.11138 83.5088 8.38479 82.6885 8.38479C82.0506 8.38479 81.5037 8.20251 81.1392 7.65568C80.6835 7.19999 80.5012 6.56201 80.5012 5.74177C80.5012 4.92151 80.7746 4.1924 81.2303 3.73671C81.686 3.28101 82.2329 3.0076 82.8708 3.0076C83.5999 3.0076 84.0556 3.28101 84.4202 3.73671V0.729126H85.605V6.92657C85.5139 7.38226 85.5139 7.83796 85.605 8.29365ZM84.3291 6.10632V5.19493C84.3291 5.01265 84.3291 4.92151 84.3291 4.83038C84.2379 4.55696 84.0556 4.37468 83.8734 4.1924C83.6911 4.01013 83.4177 3.91899 83.0531 3.91899C82.5974 3.91899 82.2329 4.10126 82.0506 4.46582C81.7772 4.83038 81.686 5.28607 81.686 5.74177C81.686 6.2886 81.7772 6.65315 82.0506 7.01771C82.324 7.38226 82.6885 7.56454 83.0531 7.56454C83.4177 7.56454 83.7822 7.38226 83.9645 7.10885C84.2379 6.74429 84.3291 6.47088 84.3291 6.10632Z" fill="white"/>
<path d="M95.7214 5.65061C95.7214 6.47086 95.448 7.10883 94.9923 7.65567C94.5366 8.2025 93.8075 8.47592 93.0784 8.47592C92.2581 8.47592 91.7113 8.2025 91.1645 7.74681C90.7088 7.19997 90.4354 6.562 90.4354 5.83289C90.4354 5.01264 90.7088 4.37467 91.1645 3.82784C91.6202 3.281 92.2581 3.09872 93.0784 3.09872C93.8986 3.09872 94.5366 3.37214 94.9923 3.82784C95.5391 4.19239 95.7214 4.83036 95.7214 5.65061ZM94.5366 5.65061C94.5366 5.19492 94.4455 4.73922 94.2632 4.37467C93.9898 3.91897 93.6252 3.7367 93.1695 3.7367C92.7138 3.7367 92.3493 3.91897 92.0759 4.37467C91.8936 4.73922 91.8024 5.10378 91.8024 5.65061C91.8024 6.10631 91.8936 6.562 92.0759 6.92656C92.3493 7.38225 92.7138 7.56453 93.1695 7.56453C93.6252 7.56453 93.9898 7.38225 94.2632 6.92656C94.3543 6.562 94.5366 6.19745 94.5366 5.65061Z" fill="white"/>
<path d="M102.101 8.29362H100.916V5.28604C100.916 4.37465 100.552 3.91896 99.8227 3.91896C99.4581 3.91896 99.1847 4.0101 99.0024 4.28351C98.8201 4.55693 98.6379 4.83035 98.6379 5.1949V8.29362H97.4531V4.55693C97.4531 4.10124 97.4531 3.64554 97.4531 3.09871H98.4556L98.5467 3.91896C98.729 3.64554 98.9113 3.46326 99.1847 3.28098C99.5493 3.09871 99.8227 3.00757 100.278 3.00757C100.734 3.00757 101.19 3.18985 101.554 3.46326C102.01 3.82782 102.192 4.46579 102.192 5.1949V8.29362H102.101Z" fill="white"/>
<path d="M110.121 3.91896H108.845V6.47085C108.845 7.10882 109.119 7.47338 109.575 7.47338C109.757 7.47338 109.939 7.47338 110.121 7.38224V8.29363C109.848 8.38477 109.575 8.38477 109.21 8.38477C108.754 8.38477 108.39 8.20249 108.116 7.92907C107.843 7.65566 107.752 7.19996 107.752 6.56199V3.91896H106.932V3.00757H107.752V2.09618L108.937 1.73163V3.00757H110.213L110.121 3.91896Z" fill="white"/>
<path d="M116.41 8.29365H115.225V5.37721C115.225 4.46582 114.861 4.01013 114.131 4.01013C113.585 4.01013 113.22 4.28354 113.038 4.83038C113.038 4.92151 112.947 5.10379 112.947 5.28607V8.38479H111.762V0.729126H112.947V3.82785C113.311 3.28101 113.858 3.0076 114.587 3.0076C115.043 3.0076 115.499 3.18988 115.772 3.46329C116.137 3.82785 116.41 4.46582 116.41 5.19493V8.29365Z" fill="white"/>
<path d="M122.881 5.46832C122.881 5.6506 122.881 5.83287 122.881 6.01515H119.326C119.326 6.56199 119.509 6.92654 119.873 7.19996C120.147 7.47337 120.602 7.56451 121.058 7.56451C121.605 7.56451 122.061 7.47337 122.516 7.2911L122.699 8.11135C122.152 8.29362 121.605 8.4759 120.876 8.4759C120.056 8.4759 119.418 8.20248 118.962 7.74679C118.506 7.2911 118.233 6.65312 118.233 5.83287C118.233 5.01262 118.415 4.37465 118.871 3.82782C119.326 3.28098 119.964 3.00757 120.785 3.00757C121.514 3.00757 122.152 3.28098 122.516 3.82782C122.699 4.28351 122.881 4.83035 122.881 5.46832ZM121.787 5.10376C121.787 4.73921 121.696 4.46579 121.514 4.19237C121.331 3.82782 120.967 3.73668 120.602 3.73668C120.238 3.73668 119.873 3.91896 119.691 4.19237C119.509 4.46579 119.418 4.73921 119.326 5.10376H121.787Z" fill="white"/>
</g>
</g>
<defs>
<clipPath id="clip0_20005128_12670">
<rect width="124" height="32.81" fill="white"/>
</clipPath>
<clipPath id="clip1_20005128_12670">
<rect width="123.949" height="32.81" fill="white" transform="translate(0.0255737)"/>
</clipPath>
</defs>
</svg>
